{"title":"The Invoking 2 2015 DVDRip","uid":12539919,"size":1233122797,"categoryP":"video","categoryS":"movies","magnet":"?xt=urn:btih:7268864c69ada2f114c7c40516f3c7136355f8cd&amp;dn=The+Invoking+2+2015+DVDRip&amp;tr=udp%3A%2F%2Ftracker.leechers-paradise.org%3A6969&amp;tr=udp%3A%2F%2Fzer0day.ch%3A1337&amp;tr=udp%3A%2F%2Fopen.demonii.com%3A1337&amp;tr=udp%3A%2F%2Ftracker.coppersurfer.tk%3A6969&amp;tr=udp%3A%2F%2Fexodus.desync.com%3A6969","seeders":0,"leechers":1,"uploader":"Joker__TPB","files":4,"time":1444384558,"description":"=================================================================\r\n&quot;Although hundreds of disturbing paranormal events occur every year| most of these chilling encounters go unreported - until now. Bear witness as hapless victims\r\nexperience the unspeakable terror of confronting demonic forces| murderous poltergeists and other evil entities that are dead set on claiming their souls. Descend\r\ninto an abyss of waking nightmares as these bloodthirsty| malevolent spirits seek to possess their prey and drag them-kicking and screaming-down to hell.&quot;\r\n=================================================================\r\nscreens: \nhttp://extraimago.com/image/3ny \nhttp://extraimago.com/image/3nL \nhttp://extraimago.com/image/3nQ \nhttp://extraimago.com/image/3nR\r\n=================================================================\r\nmedia info:\r\nVideo\r\nID                                       : 0\r\nFormat                                   : MPEG-4 Visual\r\nFormat profile                           :   \r\nFormat settings, BVOP                    : No\r\nFormat settings, QPel                    : No\r\nFormat settings, GMC                     : No warppoints\r\nFormat settings, Matrix                  : Default (H.263)\r\nCodec ID                                 : XVID\r\nCodec ID/Hint                            : XviD\r\nDuration                                 : 1h 23mn\r\nBit rate                                 : 1 518 Kbps\r\nWidth                                    : 720 pixels\r\nHeight                                   : 304 pixels\r\nDisplay aspect ratio                     : 2.40:1\r\nFrame rate                               : 23.976 fps\r\nColor space                              : YUV\r\nChroma subsampling                       : 4:2:0\r\nBit depth                                : 8 bits\r\nScan type                                : Progressive\r\nCompression mode                         : Lossy\r\nBits/(Pixel*Frame)                       : 0.289\r\nStream size                              : 903 MiB (77%)\r\nWriting library                          : Lavc56.13.100\r\n\r\nAudio\r\nID                                       : 1\r\nFormat                                   : AC-3\r\nFormat/Info                              : Audio Coding 3\r\nMode extension                           : CM (complete main)\r\nFormat settings, Endianness              : Big\r\nCodec ID                                 : 2000\r\nDuration                                 : 1h 23mn\r\nBit rate mode                            : Constant\r\nBit rate                                 : 448 Kbps\r\nChannel(s)                               : 6 channels\r\nChannel positions                        : Front: L C R, Side: L R, LFE\r\nSampling rate                            : 48.0 KHz\r\nCompression mode                         : Lossy\r\nStream size                              : 266 MiB (23%)\r\nAlignment                                : Aligned on interleaves\r\nInterleave, duration                     : 42 ms (1.00 video frame)\r\nInterleave, preload duration             : 512 ms\r\n\r\n\r\n\r\n=================================================================","torrent":{"xt":"urn:btih:7268864c69ada2f114c7c40516f3c7136355f8cd","amp;dn":"The+Invoking+2+2015+DVDRip","amp;tr":["udp%3A%2F%2Ftracker.leechers-paradise.org%3A6969","udp%3A%2F%2Fzer0day.ch%3A1337","udp%3A%2F%2Fopen.demonii.com%3A1337","udp%3A%2F%2Ftracker.coppersurfer.tk%3A6969","udp%3A%2F%2Fexodus.desync.com%3A6969"],"infoHash":"7268864c69ada2f114c7c40516f3c7136355f8cd","infoHashBuffer":{"type":"Buffer","data":[114,104,134,76,105,173,162,241,20,199,196,5,22,243,199,19,99,85,248,205]},"announce":[],"urlList":[]}}